<svg id="eo8d3SaKbE41" xmlns="http://www.w3.org/2000/svg" xmlns:xlink="http://www.w3.org/1999/xlink" viewBox="0 0 32 32" shape-rendering="geometricPrecision" text-rendering="geometricPrecision"><rect width="7.187226" height="5.951921" rx="1" ry="1" transform="matrix(1.000002 0 0.36397 0.999999 18.743508 11.875773)" stroke-width="0"/><rect width="7.187226" height="5.951921" rx="1" ry="1" transform="matrix(1.000002 0 0.36397 0.999999 5.383298 11.875773)" stroke-width="0"/><line x1="-3.088261" y1="0" x2="3.088261" y2="0" transform="matrix(1.221477 0 0 1 16.882072 14.85173)" fill="none" stroke="#000" stroke-width="0.32"/><path d="M2.495876,26.390595L2.43973,25.94139c0-5.18381-.636909-10.632044,1.291451-15.645774C6.515271,3.056976,9.726985,3.503067,16,3.371432c3.744019-.078566,8.858086,1.677052,10.275487,3.191616c1.003445,1.072231,2.219964,3.874465,2.610984,5.340795c1.22887,4.60827,1.572209,9.140337,1.572209,13.756807" transform="matrix(1 0 0 1.037989 0-.5797)" fill="none" stroke="#000" stroke-width="0.5"/><path d="M1.59747,26.27829C0.77272,20.50502,0.84646,9.0842,6.65099,5.39042c3.5937-2.2869,8.499844-1.461667,11.847694-1.740657c1.35563-.11297,3.952326,1.037427,5.165816,2.077557c4.80234,4.11628,7.58028,13.6069,7.58028,19.87717" fill="none" stroke="#000" stroke-width="0.5"/><path d="M3.22583,26.9521c0-6.12644-.58258-12.80627,1.965256-18.64187c2.049022-4.69311,6.679375-5.363321,10.808915-5.55887c1.233179-.05736,7.513495,2.09778,8.731355,2.63906.83176.36967,3.027992,5.436169,3.256712,5.390419.66542-.13308,1.112786,2.8371,1.684506,4.08448c1.60094,3.49295,0,7.621408,0,11.481858" fill="none" stroke="#000" stroke-width="0.5"/><line x1="-5.18828" y1="-0.035915" x2="5.188281" y2="0.035915" transform="translate(17.148848 23.940406)" fill="none" stroke="#000" stroke-width="0.32"/></svg>
